<svg xmlns="http://www.w3.org/2000/svg" version="1.1" xmlns:xlink="http://www.w3.org/1999/xlink" xmlns:svgjs="http://svgjs.dev/svgjs" width="1000" height="1000" viewBox="0 0 1000 1000"><rect width="1000" height="1000" fill="#89939e"></rect><g transform="matrix(0.7,0,0,0.7,149.57575757575756,252.30255000000002)"><svg viewBox="0 0 396 280" data-background-color="#89939e" preserveAspectRatio="xMidYMid meet" height="707" width="1000" xmlns="http://www.w3.org/2000/svg" xmlns:xlink="http://www.w3.org/1999/xlink"><g id="tight-bounds" transform="matrix(1,0,0,1,0.2400000000000091,0.13999999999998636)"><svg viewBox="0 0 395.52 279.72" height="279.72" width="395.52"><g><svg viewBox="0 0 395.52 279.72" height="279.72" width="395.52"><g><svg viewBox="0 0 395.52 279.72" height="279.72" width="395.52"><g><svg viewBox="0 0 395.52 279.72" height="279.72" width="395.52"><g><svg viewBox="0 0 395.52 279.72" height="279.72" width="395.52"><g transform="matrix(1,0,0,1,81.22880246045696,47.21133399503262)"><svg viewBox="0 0 233.06239507908606 185.2973320099348" height="185.2973320099348" width="233.06239507908606"><g><circle r="82" cx="116.53119753954303" cy="92.6486660049674" fill="#000000" data-fill-palette-color="accent"></circle><svg xmlns="http://www.w3.org/2000/svg" xmlns:xlink="http://www.w3.org/1999/xlink" version="1.1" x="34.95935926186291" y="34.95935926186291" viewBox="2 1.434999704360962 87.95700073242188 88.56500244140625" enable-background="new 0 0 91 91" xml:space="preserve" width="163.14367655536023" height="115.37861348620898" class="icon-o-0" data-fill-palette-color="quaternary" id="o-0"><g fill="#89939e" data-fill-palette-color="quaternary"><path d="M69.045 53.232c-0.226 0.227-0.364 0.553-0.364 0.893 0 0.324 0.139 0.652 0.364 0.879 0.227 0.236 0.553 0.375 0.891 0.375 0.327 0 0.652-0.139 0.879-0.363 0.238-0.238 0.377-0.566 0.377-0.891 0-0.34-0.139-0.666-0.365-0.893C70.363 52.77 69.497 52.77 69.045 53.232z" fill="#89939e" data-fill-palette-color="quaternary"></path><path d="M20.586 60.879l-0.515 0.375v0.639c0 8.781 4.416 16.869 11.813 21.633l0.31 0.199h27.194l0.309-0.199c7.398-4.766 11.814-12.852 11.814-21.633v-2.121l-1.859 1.021c-0.055 0.029-5.469 2.959-12.732 2.959-3.408 0-6.686-0.648-9.779-1.91v16.551h-2.51V60.68c-4.047-2.09-8.166-3.156-12.246-3.156C25.264 57.523 20.773 60.74 20.586 60.879z" fill="#89939e" data-fill-palette-color="quaternary"></path><path d="M25.852 11.309c0.189 0.113 0.415 0.164 0.615 0.164 0.439 0 0.866-0.227 1.092-0.627 0.351-0.602 0.138-1.369-0.465-1.721C26.492 8.787 25.727 9 25.388 9.602 25.036 10.193 25.25 10.971 25.852 11.309z" fill="#89939e" data-fill-palette-color="quaternary"></path><path d="M21.459 8.799c0.189 0.113 0.402 0.164 0.615 0.164 0.439 0 0.866-0.227 1.092-0.627 0.351-0.604 0.138-1.369-0.464-1.721C22.1 6.277 21.334 6.49 20.995 7.092 20.644 7.684 20.857 8.461 21.459 8.799z" fill="#89939e" data-fill-palette-color="quaternary"></path><path d="M17.067 6.289c0.188 0.113 0.402 0.164 0.615 0.164 0.439 0 0.866-0.227 1.092-0.629 0.351-0.602 0.138-1.367-0.464-1.719-0.603-0.338-1.368-0.125-1.707 0.477C16.251 5.186 16.464 5.951 17.067 6.289z" fill="#89939e" data-fill-palette-color="quaternary"></path><path d="M30.872 13.982c0.327 0 0.641-0.125 0.879-0.363s0.376-0.553 0.376-0.893c0-0.324-0.138-0.65-0.376-0.877-0.464-0.479-1.317-0.479-1.77 0-0.238 0.227-0.364 0.553-0.364 0.877 0 0.34 0.125 0.654 0.364 0.893C30.207 13.857 30.533 13.982 30.872 13.982z" fill="#89939e" data-fill-palette-color="quaternary"></path><path d="M22.087 24.023c0.201 0 0.414-0.051 0.615-0.164 0.602-0.338 0.815-1.117 0.464-1.707-0.339-0.602-1.105-0.814-1.708-0.477-0.602 0.352-0.815 1.117-0.464 1.719C21.221 23.797 21.648 24.023 22.087 24.023z" fill="#89939e" data-fill-palette-color="quaternary"></path><path d="M17.694 26.533c0.201 0 0.414-0.051 0.615-0.164 0.602-0.338 0.815-1.104 0.464-1.707-0.339-0.602-1.105-0.814-1.707-0.477-0.603 0.352-0.816 1.117-0.464 1.719C16.828 26.307 17.255 26.533 17.694 26.533z" fill="#89939e" data-fill-palette-color="quaternary"></path><path d="M25.852 19.166c-0.602 0.352-0.815 1.117-0.464 1.719 0.226 0.402 0.653 0.627 1.091 0.627 0.201 0 0.415-0.049 0.615-0.162 0.603-0.352 0.816-1.117 0.465-1.707C27.22 19.027 26.454 18.828 25.852 19.166z" fill="#89939e" data-fill-palette-color="quaternary"></path><path d="M30.872 19.002c0.327 0 0.641-0.125 0.879-0.363s0.364-0.551 0.364-0.891c0-0.326-0.125-0.652-0.364-0.891-0.464-0.465-1.305-0.465-1.782 0.012-0.226 0.227-0.364 0.553-0.364 0.879s0.138 0.652 0.376 0.891C30.207 18.877 30.533 19.002 30.872 19.002z" fill="#89939e" data-fill-palette-color="quaternary"></path><path d="M13.29 15.238c0 0.689 0.565 1.254 1.255 1.254 0.703 0 1.255-0.564 1.255-1.254 0-0.691-0.552-1.256-1.255-1.256C13.854 13.982 13.29 14.547 13.29 15.238z" fill="#89939e" data-fill-palette-color="quaternary"></path><path d="M18.31 15.238c0 0.689 0.565 1.254 1.255 1.254 0.703 0 1.255-0.564 1.255-1.254 0-0.691-0.552-1.256-1.255-1.256C18.875 13.982 18.31 14.547 18.31 15.238z" fill="#89939e" data-fill-palette-color="quaternary"></path><path d="M24.597 16.492c0.69 0 1.243-0.564 1.243-1.254 0-0.691-0.552-1.256-1.243-1.256-0.702 0-1.255 0.564-1.255 1.256C23.342 15.928 23.895 16.492 24.597 16.492z" fill="#89939e" data-fill-palette-color="quaternary"></path><path d="M13.69 28.967c0.029-0.009 0.062-0.006 0.089-0.018 0.208-0.087 0.37-0.24 0.503-0.418 0.164-0.211 0.274-0.466 0.274-0.744 0-0.207-0.072-0.404-0.174-0.585-0.212-0.39-0.612-0.665-1.088-0.665-2.076 0-3.765-1.689-3.753-3.857l0.026-0.223c0.05-0.572-0.296-1.105-0.839-1.293C6.206 20.289 4.51 17.908 4.51 15.24c0-2.666 1.696-5.047 4.219-5.922 0.543-0.188 0.889-0.723 0.839-1.295L9.53 7.711c0-2.076 1.689-3.766 3.765-3.766 0.089 0 0.167-0.033 0.251-0.051 0.08-0.016 0.163-0.017 0.237-0.048 0.45-0.19 0.767-0.635 0.767-1.155 0-0.271-0.104-0.508-0.25-0.713-0.041-0.06-0.067-0.129-0.119-0.182-0.047-0.047-0.111-0.069-0.166-0.106-0.206-0.149-0.446-0.255-0.72-0.255-3.323 0-6.051 2.598-6.262 5.867C3.988 8.742 2 11.822 2 15.24c0 3.42 1.988 6.5 5.033 7.939 0.211 3.27 2.939 5.867 6.262 5.867C13.435 29.047 13.564 29.009 13.69 28.967z" fill="#89939e" data-fill-palette-color="quaternary"></path><path d="M83.33 28.291c-2.747 0-5.107 1.68-6.111 4.067-2.586-0.389-3.771-3.075-5.293-7.208-0.98-2.67-1.998-5.432-3.873-7.031-4.42-3.778-10.998-4.203-15.893-2.752v-5.154H39.611v2.223h-4.719v8.791h4.719v1.555h-0.505c-4.334 0-7.861 3.525-7.861 7.861 0 0.287 0.018 0.569 0.047 0.848C19.76 37.072 12.389 48.71 12.389 61.627c0 11.436 5.751 21.967 15.384 28.172L28.083 90h35.604l0.311-0.201c9.633-6.207 15.385-16.738 15.385-28.172 0-12.883-7.382-24.549-18.903-30.134 0.03-0.28 0.048-0.563 0.048-0.851 0-4.336-3.527-7.861-7.861-7.861H52.16v-4.774c4.299-1.537 10.443-1.244 14.262 2.021 1.377 1.176 2.279 3.623 3.148 5.99 1.35 3.665 2.993 8.1 7.138 8.798 0 0.035-0.005 0.069-0.005 0.104 0 3.654 2.973 6.627 6.627 6.627s6.627-2.973 6.627-6.627C89.957 31.264 86.984 28.291 83.33 28.291zM39.599 18.717h-2.196v-3.771h2.196V18.717zM76.873 61.627c0 10.455-5.199 20.096-13.928 25.863H28.826c-8.728-5.768-13.927-15.408-13.927-25.863 0-11.797 6.643-22.45 17.079-27.689 1.25 2.69 3.971 4.564 7.127 4.564h5.525V60.68c0.068 0.035 0.138 0.064 0.207 0.102 0.754 0.396 1.524 0.742 2.303 1.061v-23.34h5.525c3.154 0 5.874-1.872 7.125-4.559C70.219 39.186 76.873 49.86 76.873 61.627zM52.666 25.291c2.951 0 5.352 2.4 5.352 5.352 0 2.949-2.4 5.35-5.352 5.35h-13.56c-2.951 0-5.351-2.4-5.351-5.35 0-2.951 2.4-5.352 5.351-5.352h0.505H52.16 52.666z" fill="#89939e" data-fill-palette-color="quaternary"></path><path d="M67.625 51.639l2.311-0.98c-2.098-4.943-5.965-8.844-10.889-10.982l-1 2.301C62.379 43.859 65.781 47.291 67.625 51.639z" fill="#89939e" data-fill-palette-color="quaternary"></path></g></svg></g></svg></g><path d="M82.069 94.279V94.279L86.769 96.269C86.986 96.359 87.204 96.362 87.421 96.277 87.635 96.199 87.793 96.038 87.893 95.796V95.796C88.503 94.324 88.717 92.989 88.536 91.793 88.348 90.595 87.633 89.738 86.39 89.223 85.148 88.708 84.078 88.848 83.182 89.641V89.641C82.467 90.277 81.914 91.067 81.523 92.011V92.011C81.423 92.253 81.335 92.501 81.259 92.753V92.753C81.022 93.448 81.292 93.957 82.069 94.279ZM72.082 90.185V90.185L75.07 91.379C75.53 91.57 75.875 91.386 76.107 90.826V90.826C77.119 88.385 76.935 86.878 75.555 86.307V86.307C73.959 85.645 72.709 86.405 71.805 88.586V88.586C71.746 88.729 71.692 88.859 71.643 88.977V88.977C71.401 89.561 71.547 89.964 72.082 90.185ZM62.316 100.028V100.028C63.46 96.986 64.962 93.219 66.823 88.727 68.686 84.229 70.019 81.134 70.821 79.443 71.618 77.75 72.922 76.499 74.734 75.692 76.539 74.883 78.262 74.817 79.903 75.497V75.497C81.909 76.328 83.025 77.809 83.248 79.94V79.94C83.278 80.149 83.358 80.28 83.489 80.335 83.619 80.389 83.744 80.342 83.863 80.195V80.195C84.725 79.081 85.889 78.326 87.357 77.93 88.824 77.533 90.319 77.65 91.841 78.281V78.281C93.748 79.071 95.17 80.522 96.107 82.636 97.044 84.749 96.947 87.355 95.817 90.453 94.69 93.56 93.847 95.788 93.288 97.136 92.727 98.49 90.818 102.995 87.56 110.649V110.649C87.269 111.351 86.81 111.827 86.182 112.076 85.555 112.326 84.937 112.368 84.328 112.204V112.204C82.117 111.513 78.977 110.325 74.908 108.64 70.832 106.951 67.391 105.427 64.584 104.068V104.068C63.434 103.505 62.668 102.947 62.285 102.395 61.905 101.837 61.915 101.048 62.316 100.028ZM122.075 58.799V58.799C119.78 60.972 117.416 62.642 114.982 63.807 112.557 64.973 110.29 65.601 108.18 65.691 106.066 65.776 104.116 65.487 102.332 64.825 100.547 64.153 99.014 63.141 97.734 61.788 96.458 60.441 95.538 58.853 94.974 57.025 94.415 55.202 94.233 53.24 94.428 51.138 94.623 49.045 95.364 46.816 96.651 44.448 97.939 42.072 99.693 39.832 101.915 37.728 104.137 35.624 106.364 34.039 108.595 32.972 110.827 31.906 112.914 31.352 114.855 31.31V31.31C118.82 31.232 122.062 32.524 124.582 35.185V35.185C125.858 36.533 126.818 38.129 127.463 39.973 128.107 41.808 128.392 43.761 128.316 45.833 128.24 47.905 127.677 50.078 126.625 52.352 125.574 54.625 124.057 56.775 122.075 58.799ZM117.236 42.377C116.386 41.479 115.317 40.995 114.029 40.927 112.742 40.868 111.439 41.463 110.12 42.711 108.797 43.964 108.08 45.31 107.97 46.748 107.854 48.191 108.273 49.415 109.225 50.421 110.182 51.432 111.357 51.852 112.751 51.681 114.145 51.519 115.415 50.895 116.563 49.808 117.715 48.717 118.328 47.433 118.402 45.955 118.48 44.473 118.092 43.281 117.236 42.377ZM164.402 34.441V34.441C161.411 35.464 158.567 36 155.869 36.048 153.179 36.101 150.856 35.73 148.899 34.935 146.941 34.134 145.288 33.061 143.939 31.717 142.595 30.365 141.622 28.807 141.019 27.044 140.418 25.288 140.241 23.462 140.488 21.565 140.737 19.675 141.387 17.814 142.438 15.983 143.485 14.161 145.086 12.441 147.24 10.823 149.399 9.196 151.925 7.888 154.82 6.897 157.716 5.907 160.4 5.39 162.873 5.348 165.345 5.305 167.474 5.668 169.258 6.437V6.437C172.896 8.014 175.308 10.536 176.494 14.004V14.004C177.095 15.76 177.305 17.611 177.125 19.556 176.949 21.492 176.396 23.387 175.466 25.24 174.536 27.094 173.121 28.836 171.219 30.467 169.318 32.098 167.046 33.423 164.402 34.441ZM166.824 17.493C166.424 16.322 165.652 15.438 164.51 14.841 163.363 14.252 161.931 14.252 160.213 14.839 158.489 15.429 157.277 16.355 156.579 17.618 155.874 18.882 155.746 20.17 156.195 21.48 156.645 22.798 157.54 23.668 158.879 24.091 160.213 24.523 161.628 24.483 163.124 23.972 164.625 23.458 165.716 22.545 166.397 21.232 167.085 19.916 167.227 18.67 166.824 17.493ZM223.182 1.998V1.998L227.364 2.342C228.255 2.415 228.863 2.61 229.188 2.927 229.52 3.238 229.663 3.84 229.617 4.734V4.734C229.445 8.707 229.172 12.976 228.797 17.54 228.422 22.105 228.057 25.435 227.703 27.531V27.531C227.6 28.123 227.328 28.651 226.885 29.114 226.435 29.576 225.885 29.781 225.235 29.727V29.727L218.701 29.19C217.789 29.115 216.814 28.708 215.775 27.968V27.968C210.016 23.898 206.388 21.407 204.891 20.495V20.495C204.587 20.342 204.328 20.368 204.116 20.573 203.903 20.778 203.772 21.179 203.723 21.775V21.775L203.366 26.118C203.326 26.614 203.109 26.991 202.717 27.249V27.249C202.138 27.647 200.712 27.753 198.44 27.566V27.566C197.817 27.515 197.205 27.444 196.605 27.354 196.012 27.265 195.545 26.957 195.203 26.429 194.869 25.903 194.712 25.353 194.732 24.781V24.781C194.908 21.645 195.191 17.711 195.58 12.979 195.969 8.247 196.235 5.165 196.38 3.733 196.525 2.301 196.779 1.303 197.142 0.739 197.505 0.182 198.129-0.06 199.014 0.013V0.013L203.317 0.366C204.201 0.439 205.092 0.762 205.99 1.335V1.335C213.728 6.195 218.246 9.018 219.544 9.807V9.807C219.976 10.051 220.326 10.107 220.593 9.974 220.867 9.841 221.022 9.564 221.056 9.141V9.141L221.506 3.672C221.549 3.15 221.722 2.729 222.025 2.409 222.327 2.097 222.713 1.96 223.182 1.998ZM283.87 48.94V48.94L280.473 52.749C280.317 52.926 280.245 53.13 280.255 53.363 280.261 53.592 280.362 53.792 280.559 53.965V53.965C281.757 55.017 282.951 55.649 284.142 55.862 285.337 56.071 286.379 55.669 287.266 54.659 288.153 53.648 288.366 52.59 287.903 51.486V51.486C287.531 50.605 286.961 49.827 286.193 49.153V49.153C285.996 48.98 285.79 48.817 285.575 48.664V48.664C284.993 48.216 284.425 48.308 283.87 48.94ZM290.961 40.802V40.802L288.868 43.247C288.54 43.621 288.603 44.007 289.058 44.406V44.406C291.044 46.15 292.53 46.461 293.515 45.339V45.339C294.655 44.04 294.338 42.612 292.564 41.055V41.055C292.448 40.953 292.342 40.86 292.246 40.775V40.775C291.771 40.358 291.342 40.367 290.961 40.802ZM284.786 28.387V28.387C287.297 30.449 290.38 33.084 294.034 36.292 297.693 39.504 300.194 41.762 301.537 43.066 302.884 44.365 303.648 46.002 303.829 47.978 304.014 49.948 303.521 51.6 302.35 52.934V52.934C300.917 54.567 299.156 55.146 297.066 54.672V54.672C296.859 54.633 296.709 54.666 296.615 54.772 296.522 54.879 296.526 55.012 296.627 55.172V55.172C297.404 56.346 297.744 57.692 297.647 59.208 297.55 60.725 296.959 62.103 295.872 63.341V63.341C294.51 64.892 292.677 65.772 290.375 65.979 288.073 66.185 285.637 65.255 283.067 63.187 280.488 61.12 278.65 59.605 277.554 58.642 276.452 57.675 272.802 54.417 266.604 48.869V48.869C266.033 48.367 265.73 47.779 265.696 47.105 265.662 46.431 265.82 45.832 266.172 45.309V45.309C267.537 43.438 269.673 40.847 272.579 37.537 275.489 34.222 278.04 31.454 280.23 29.234V29.234C281.134 28.327 281.908 27.781 282.554 27.596 283.205 27.416 283.948 27.679 284.786 28.387ZM304.576 98.242V98.242C303.257 95.369 302.438 92.593 302.118 89.913 301.795 87.243 301.931 84.894 302.525 82.868 303.125 80.839 304.026 79.086 305.228 77.609 306.438 76.136 307.89 75.011 309.583 74.234 311.27 73.46 313.069 73.1 314.981 73.155 316.887 73.212 318.804 73.672 320.731 74.533 322.649 75.392 324.522 76.811 326.348 78.792 328.184 80.776 329.74 83.159 331.016 85.939 332.293 88.72 333.076 91.339 333.368 93.795 333.659 96.251 333.512 98.405 332.926 100.257V100.257C331.723 104.036 329.456 106.689 326.125 108.218V108.218C324.438 108.992 322.618 109.387 320.665 109.403 318.72 109.423 316.779 109.063 314.842 108.325 312.905 107.586 311.029 106.353 309.215 104.625 307.401 102.898 305.855 100.77 304.576 98.242ZM321.681 98.948C322.806 98.432 323.608 97.575 324.087 96.379 324.557 95.179 324.414 93.753 323.657 92.103 322.896 90.447 321.853 89.335 320.527 88.767 319.198 88.193 317.904 88.195 316.645 88.773 315.38 89.354 314.604 90.331 314.318 91.706 314.022 93.077 314.204 94.481 314.863 95.917 315.525 97.36 316.544 98.354 317.919 98.899 319.297 99.45 320.551 99.467 321.681 98.948ZM70.537 184.074C70.345 183.542 70.357 183.031 70.573 182.538 70.793 182.037 71.286 181.591 72.053 181.2 72.817 180.803 75.208 179.88 79.225 178.431 83.249 176.98 85.898 176.1 87.173 175.79V175.79C88.816 175.37 89.871 175.75 90.341 176.932V176.932C90.869 178.279 92.924 183.918 96.506 193.849V193.849C96.907 194.963 96.399 195.775 94.982 196.286V196.286C93.863 196.69 93.126 196.401 92.772 195.421V195.421L90.521 189.177C90.377 188.779 90.13 188.51 89.78 188.372 89.434 188.225 89.052 188.227 88.635 188.378V188.378L86.595 189.113C86.025 189.319 85.833 189.677 86.018 190.19V190.19L87.879 195.352C87.989 195.655 88.044 195.897 88.044 196.075 88.046 196.26 87.935 196.468 87.711 196.699 87.481 196.932 87.056 197.161 86.436 197.384 85.809 197.61 85.352 197.65 85.063 197.504 84.777 197.364 84.545 197.048 84.367 196.554V196.554L82.7 191.933C82.529 191.459 82.295 191.175 81.997 191.082 81.69 190.986 81.293 191.025 80.806 191.201V191.201L79.411 191.704C78.602 191.996 78.337 192.531 78.618 193.309V193.309L81.164 200.369C81.287 200.71 81.295 201.05 81.189 201.389 81.088 201.726 80.703 202.015 80.032 202.256 79.355 202.501 78.696 202.556 78.055 202.423 77.407 202.292 77.005 202.008 76.847 201.571V201.571ZM106.891 212.656V212.656L98.307 230.024C97.969 230.726 97.612 231.199 97.234 231.445 96.857 231.691 96.476 231.723 96.092 231.54 95.708 231.356 95.383 231.062 95.119 230.656V230.656L89.816 222.518C89.28 221.695 89.087 221.066 89.237 220.632V220.632C89.294 220.498 89.411 220.289 89.588 220.006V220.006L90.672 218.252C91.019 217.713 90.964 217.018 90.507 216.168V216.168L87.395 211.393C87.164 211.038 86.954 210.79 86.765 210.648 86.576 210.506 86.325 210.453 86.011 210.489V210.489L83.327 210.841C82.913 210.871 82.583 210.821 82.339 210.691 82.099 210.558 81.853 210.297 81.6 209.908V209.908L80.118 207.635C79.692 206.981 79.7 206.475 80.14 206.116V206.116C80.197 206.055 80.259 206.003 80.326 205.958V205.958C80.709 205.709 81.159 205.592 81.676 205.609V205.609L100.783 204.428C102.592 204.333 104.05 205.136 105.159 206.838V206.838L106.475 208.858C107.352 210.204 107.491 211.47 106.891 212.656ZM95.09 208.679V208.679L92.037 209.019C91.84 209.051 91.683 209.105 91.565 209.182V209.182C91.125 209.469 91.041 209.82 91.313 210.237V210.237L92.816 212.544C93.044 212.894 93.292 213.077 93.561 213.095 93.823 213.116 94.022 213.083 94.158 212.995 94.293 212.907 94.411 212.793 94.514 212.654V212.654L96.063 210.284C96.371 209.795 96.42 209.39 96.21 209.069 96.001 208.748 95.628 208.618 95.09 208.679ZM120.164 230.517V230.517L118.229 232.464 114.218 236.681C113.634 237.295 113.372 237.946 113.432 238.634 113.492 239.332 113.778 239.924 114.29 240.411 114.797 240.893 115.398 241.144 116.093 241.165 116.778 241.186 117.413 240.889 117.997 240.275V240.275L124.191 233.763C124.84 233.081 125.407 232.664 125.893 232.514 126.384 232.369 126.934 232.586 127.544 233.165V233.165L129.554 235.077C130.021 235.522 130.211 235.967 130.122 236.411V236.411C129.99 237.223 128.337 239.298 125.162 242.636V242.636C124.124 243.727 123.312 244.551 122.727 245.108V245.108C121.562 246.246 120.285 247.037 118.898 247.48 117.515 247.929 116.168 248.058 114.855 247.867V247.867C112.2 247.477 109.867 246.325 107.855 244.411V244.411C105.204 241.89 103.6 239.185 103.042 236.298V236.298C102.768 234.839 102.876 233.35 103.365 231.83 103.851 230.315 104.746 228.856 106.053 227.453V227.453C106.687 226.757 107.639 225.742 108.909 224.406 110.174 223.076 111.104 222.133 111.699 221.575 112.299 221.023 112.847 220.681 113.343 220.55 113.834 220.423 114.38 220.645 114.979 221.215V221.215L120.812 226.762C121.397 227.319 121.638 227.841 121.536 228.328V228.328C121.409 228.959 120.952 229.689 120.164 230.517ZM143.468 267.356V267.356C142.201 266.87 140.441 266.076 138.189 264.972 135.93 263.866 134.406 263.078 133.617 262.609 132.826 262.147 132.279 261.696 131.978 261.256 131.677 260.816 131.631 260.337 131.84 259.818V259.818C132.687 257.814 133.723 255.562 134.947 253.062 136.175 250.556 137.51 247.922 138.952 245.162V245.162C139.837 243.446 141.092 242.919 142.715 243.579V243.579C143.856 244.048 145.565 244.84 147.841 245.955 150.112 247.068 151.879 247.971 153.142 248.664 154.401 249.364 155.502 250.274 156.443 251.394 157.385 252.514 158.006 253.676 158.308 254.879V254.879C158.948 257.364 158.701 259.763 157.568 262.076V262.076C156.376 264.51 154.526 266.299 152.018 267.445V267.445C150.81 267.999 149.461 268.278 147.969 268.281 146.474 268.29 144.974 267.982 143.468 267.356ZM148.64 253.704V253.704L145.431 260.253C145.36 260.398 145.348 260.561 145.395 260.741 145.441 260.921 145.555 261.055 145.736 261.144V261.144C146.89 261.709 147.974 261.75 148.99 261.266 150.002 260.774 150.774 259.987 151.303 258.906 151.836 257.819 152.015 256.735 151.841 255.654 151.66 254.569 151.093 253.794 150.139 253.326V253.326C149.903 253.211 149.718 253.131 149.582 253.087V253.087C149.193 253.009 148.879 253.215 148.64 253.704ZM159.205 273.683C158.657 273.544 158.24 273.248 157.952 272.794 157.66 272.331 157.567 271.673 157.672 270.818 157.771 269.962 158.344 267.465 159.393 263.325 160.442 259.179 161.196 256.491 161.653 255.261V255.261C162.224 253.664 163.13 253.002 164.372 253.275V253.275C165.784 253.591 171.607 255.045 181.842 257.636V257.636C182.989 257.927 183.378 258.802 183.008 260.263V260.263C182.716 261.417 182.065 261.866 181.054 261.61V261.61L174.62 259.98C174.209 259.876 173.849 259.931 173.538 260.143 173.223 260.348 173.011 260.665 172.902 261.096V261.096L172.369 263.198C172.221 263.785 172.41 264.145 172.938 264.279V264.279L178.258 265.626C178.571 265.705 178.801 265.795 178.95 265.894 179.104 265.996 179.214 266.204 179.28 266.519 179.345 266.841 179.296 267.321 179.134 267.96 178.971 268.605 178.748 269.007 178.465 269.164 178.189 269.323 177.797 269.338 177.288 269.209V269.209L172.526 268.003C172.037 267.88 171.671 267.915 171.427 268.11 171.175 268.31 170.986 268.661 170.859 269.163V269.163L170.495 270.6C170.284 271.435 170.579 271.954 171.381 272.157V272.157L178.656 273.999C179.008 274.088 179.294 274.272 179.515 274.549 179.738 274.821 179.762 275.302 179.587 275.993 179.41 276.691 179.087 277.268 178.618 277.725 178.147 278.188 177.686 278.363 177.236 278.249V278.249ZM208.325 275.314V275.314L208.46 277.842C208.506 278.708 207.943 279.203 206.771 279.326 205.599 279.449 204.328 279.547 202.958 279.619 201.581 279.693 200.007 279.726 198.236 279.719V279.719C197.649 279.71 197.172 279.533 196.803 279.189 196.428 278.846 196.198 278.447 196.114 277.994V277.994C195.858 276.236 195.63 273.464 195.429 269.676 195.227 265.889 195.141 263.129 195.17 261.397 195.199 259.664 196.029 258.745 197.66 258.638V258.638C199.525 258.498 201.521 258.372 203.65 258.259 205.772 258.146 208.077 258.053 210.565 257.982 213.046 257.91 215.117 258.736 216.778 260.459 218.438 262.182 219.327 264.129 219.442 266.298 219.557 268.467 218.961 270.29 217.652 271.767 216.344 273.251 214.353 274.064 211.68 274.206V274.206L209.333 274.331C209.072 274.345 208.835 274.448 208.623 274.641 208.41 274.828 208.311 275.052 208.325 275.314ZM207.715 264.416V264.416L208.072 269.983C208.092 270.366 208.314 270.546 208.737 270.524V270.524C209.979 270.458 210.941 270.06 211.623 269.33 212.298 268.6 212.61 267.762 212.56 266.815 212.51 265.875 212.131 265.08 211.423 264.431 210.708 263.782 209.7 263.492 208.397 263.562V263.562C207.913 263.588 207.686 263.872 207.715 264.416ZM237.577 252.987V252.987L251.81 266.131C252.387 266.654 252.74 267.13 252.87 267.562 252.999 267.994 252.921 268.368 252.637 268.685 252.353 269.001 251.979 269.229 251.515 269.368V269.368L242.209 272.154C241.268 272.435 240.611 272.442 240.236 272.176V272.176C240.124 272.083 239.957 271.912 239.735 271.662V271.662L238.359 270.126C237.94 269.641 237.258 269.497 236.314 269.696V269.696L230.854 271.33C230.448 271.452 230.15 271.583 229.961 271.724 229.771 271.865 229.65 272.091 229.595 272.402V272.402L229.174 275.076C229.085 275.482 228.944 275.784 228.751 275.982 228.555 276.174 228.235 276.336 227.791 276.469V276.469L225.191 277.247C224.444 277.471 223.96 277.321 223.74 276.797V276.797C223.698 276.726 223.665 276.651 223.642 276.574V276.574C223.511 276.136 223.526 275.672 223.688 275.181V275.181L227.958 256.519C228.378 254.757 229.561 253.586 231.507 253.003V253.003L233.816 252.312C235.356 251.851 236.61 252.076 237.577 252.987ZM230.426 263.182V263.182L229.889 266.207C229.864 266.404 229.871 266.57 229.912 266.706V266.706C230.062 267.208 230.376 267.388 230.853 267.245V267.245L233.491 266.456C233.89 266.336 234.136 266.15 234.229 265.898 234.324 265.652 234.348 265.451 234.302 265.297 234.256 265.142 234.18 264.996 234.076 264.859V264.859L232.241 262.702C231.858 262.269 231.484 262.108 231.116 262.217 230.749 262.327 230.519 262.649 230.426 263.182ZM260.631 247.651V247.651L263.481 252.446C263.673 252.778 263.953 252.837 264.319 252.625V252.625C265.395 252.001 266.071 251.209 266.346 250.249 266.616 249.292 266.513 248.404 266.037 247.583 265.565 246.769 264.866 246.234 263.94 245.977 263.009 245.724 261.979 245.925 260.85 246.579V246.579C260.431 246.822 260.358 247.179 260.631 247.651ZM271.996 251.487V251.487C272.524 251.647 274.457 252.279 277.794 253.384V253.384C278.007 253.47 278.149 253.575 278.22 253.697V253.697C278.483 254.15 278.414 254.494 278.012 254.726V254.726C277.103 255.277 276.183 255.822 275.252 256.361 274.322 256.901 273.391 257.428 272.462 257.944V257.944C271.956 258.237 271.377 258.304 270.725 258.146V258.146L266.52 256.06C266.372 256.006 266.227 255.996 266.084 256.032V256.032C265.744 256.089 265.669 256.281 265.858 256.607V256.607L267.4 259.269C267.835 260.019 267.577 260.705 266.624 261.328 265.671 261.95 264.612 262.598 263.449 263.273 262.285 263.947 260.852 264.72 259.149 265.59V265.59C258.623 265.849 258.117 265.909 257.632 265.77 257.142 265.634 256.756 265.384 256.474 265.019V265.019C255.448 263.57 253.983 261.204 252.081 257.923 250.179 254.641 248.847 252.223 248.085 250.667 247.324 249.111 247.644 247.914 249.048 247.078V247.078C250.359 246.295 252.151 245.244 254.426 243.925 256.707 242.603 258.605 241.526 260.12 240.695V240.695C262.299 239.478 264.529 239.255 266.809 240.024 269.089 240.793 270.799 242.161 271.939 244.128V244.128C272.603 245.274 272.954 246.489 272.991 247.773 273.025 249.052 272.693 250.29 271.996 251.487ZM280.563 249.875V249.875L269.592 237.709C268.598 236.36 268.546 235.231 269.438 234.322V234.322C270.095 233.705 274.568 229.673 282.857 222.226V222.226C283.752 221.421 284.797 221.684 285.993 223.015V223.015C286.6 223.69 286.508 224.383 285.717 225.093V225.093L280.825 229.489C280.51 229.772 280.354 230.101 280.358 230.478 280.352 230.854 280.504 231.214 280.814 231.559V231.559L282.243 233.15C282.661 233.615 283.065 233.673 283.456 233.322V233.322L287.177 229.978C287.538 229.655 287.882 229.495 288.21 229.498 288.539 229.501 288.968 229.798 289.498 230.388 290.029 230.979 290.283 231.433 290.261 231.751 290.234 232.073 290.026 232.409 289.636 232.76V232.76L286.297 235.76C285.921 236.097 285.745 236.418 285.766 236.724 285.783 237.035 285.965 237.383 286.311 237.768V237.768L289.782 241.632C290.25 242.152 290.486 242.641 290.49 243.099 290.499 243.552 290.323 243.94 289.963 244.263V244.263L283.592 249.987C283.172 250.364 282.688 250.55 282.141 250.545 281.589 250.534 281.063 250.311 280.563 249.875ZM293.391 213.365V213.365L295.562 215.044 300.243 218.503C300.924 219.007 301.602 219.187 302.278 219.042 302.963 218.896 303.515 218.539 303.935 217.971 304.351 217.409 304.526 216.781 304.46 216.089 304.396 215.406 304.024 214.813 303.342 214.309V214.309L296.114 208.968C295.357 208.408 294.874 207.896 294.665 207.432 294.46 206.963 294.607 206.39 295.107 205.714V205.714L296.756 203.484C297.139 202.964 297.557 202.721 298.009 202.755V202.755C298.831 202.785 301.095 204.169 304.799 206.907V206.907C306.011 207.802 306.929 208.506 307.554 209.018V209.018C308.827 210.034 309.769 211.203 310.381 212.525 310.997 213.841 311.291 215.163 311.264 216.489V216.489C311.205 219.171 310.35 221.629 308.699 223.863V223.863C306.525 226.805 304.039 228.731 301.243 229.641V229.641C299.83 230.093 298.339 230.17 296.77 229.872 295.206 229.578 293.648 228.869 292.094 227.746V227.746C291.325 227.203 290.2 226.384 288.718 225.289 287.242 224.197 286.19 223.391 285.564 222.87 284.941 222.343 284.534 221.841 284.343 221.365 284.156 220.893 284.309 220.324 284.801 219.659V219.659L289.585 213.186C290.065 212.537 290.553 212.233 291.049 212.274V212.274C291.691 212.321 292.472 212.685 293.391 213.365ZM303.172 192.738C304.318 192.415 305.751 192.096 307.47 191.783 309.192 191.463 310.346 191.224 310.933 191.064 311.529 190.901 311.873 190.711 311.965 190.495 312.054 190.284 312.014 190.044 311.844 189.775 311.674 189.505 311.008 188.502 309.847 186.765 308.689 185.022 307.833 183.631 307.282 182.593 306.732 181.548 306.535 180.817 306.691 180.401 306.843 179.991 307.058 179.461 307.334 178.811 307.611 178.161 307.952 177.411 308.358 176.561 308.766 175.704 309.239 175.222 309.774 175.113 310.319 175.002 310.979 175.082 311.755 175.354V175.354C313.745 176.069 316.346 177.11 319.558 178.477 322.769 179.844 325.265 181.002 327.047 181.95V181.95C327.471 182.174 327.795 182.51 328.022 182.957 328.248 183.404 328.251 183.888 328.029 184.407V184.407C327.569 185.541 327.044 186.798 326.457 188.178 325.87 189.558 325.376 190.641 324.975 191.428V191.428C324.83 191.717 324.602 191.935 324.292 192.08 323.978 192.217 323.641 192.22 323.28 192.088V192.088L318.633 190.307C318.18 190.136 317.888 190.126 317.759 190.275 317.627 190.431 317.678 190.646 317.912 190.921V190.921C319.234 192.639 320.658 194.685 322.184 197.059V197.059C322.572 197.641 322.644 198.219 322.399 198.795 322.156 199.364 321.687 199.72 320.991 199.862V199.862C319.792 200.119 317.362 200.386 313.7 200.661V200.661C313.475 200.675 313.319 200.733 313.232 200.835 313.142 200.943 313.142 201.071 313.233 201.219 313.323 201.367 313.517 201.504 313.814 201.631V201.631L318.33 203.718C318.675 203.886 318.892 204.165 318.983 204.554 319.069 204.935 319.039 205.324 318.891 205.722V205.722L317.722 208.469C317.49 208.962 317.143 209.289 316.679 209.45 316.214 209.617 315.758 209.639 315.314 209.516V209.516C313.601 208.955 311.013 207.937 307.547 206.462 304.076 204.985 301.545 203.856 299.955 203.077V203.077C299.205 202.692 298.68 202.26 298.379 201.782 298.079 201.303 298.091 200.683 298.415 199.922V199.922C300.069 196.036 300.989 193.95 301.177 193.665 301.367 193.373 302.032 193.064 303.172 192.738ZM68.98 144.648C68.98 142.853 70.436 141.397 72.232 141.397 74.028 141.397 75.483 142.853 75.483 144.648 75.483 146.444 74.028 147.9 72.232 147.9 70.436 147.9 68.98 146.444 68.98 144.648ZM322.927 144.648C322.927 142.853 324.383 141.397 326.179 141.397 327.975 141.397 329.431 142.853 329.431 144.648 329.431 146.444 327.975 147.9 326.179 147.9 324.383 147.9 322.927 146.444 322.927 144.648Z" fill="#000000" data-fill-palette-color="primary"></path></svg></g></svg></g></svg></g><g></g></svg></g><defs></defs></svg><rect width="395.52" height="279.72" fill="none" stroke="none" visibility="hidden"></rect></g></svg></g></svg>